#N canvas 3 94 954 983 10;
#X obj 8 18 cnv 15 900 500 empty empty ScanDrum_Emulation 20 12 0 14
-261682 -66577 0;
#X obj 20 174 select 0 1;
#X msg 20 191 disconnect;
#X obj 67 242 spigot;
#X obj 20 105 tgl 50 0 empty empty empty 17 7 0 10 -258113 -1 -1 0
1;
#X obj 67 225 r toRevil;
#X msg 20 208 connect 127.0.0.1 8327;
#X obj 67 259 list prepend send;
#X obj 67 276 list trim;
#X obj 20 293 netsend -u -b;
#X obj 80 361 oscparse;
#X obj 587 257 s toRevil;
#X obj 218 168 s toRevil;
#X obj 199 219 s toRevil;
#X msg 199 185 0 0 0;
#X msg 249 185 0 100 0;
#X msg 309 185 100 100 0;
#X obj 590 207 hsl 128 15 -200 200 0 0 empty empty empty -2 -8 0 10
-262144 -1 -1 0 1;
#X msg 587 223 0 0 \$1;
#X obj 241 279 list split 3;
#X obj 241 296 route list;
#X obj 244 412 array define curs1blob;
#X obj 347 381 array set curs1blob;
#X obj 587 190 line;
#X msg 587 173 -200;
#X obj 213 96 hradio 15 1 0 8 empty empty empty 0 -8 0 10 -262144 -1
-1 2;
#X msg 622 173 200 \$1;
#X obj 587 156 t f b;
#X obj 347 330 list prepend;
#X obj 347 364 route cursor1 cursor2 cursor3;
#X obj 347 347 list trim;
#X obj 566 330 list prepend;
#X obj 566 364 route cursor1 cursor2 cursor3;
#X obj 566 347 list trim;
#X obj 241 313 route revealed_name revealed_blob revealed_inside;
#X obj 566 381 tgl 15 0 empty empty empty 17 7 0 10 -262144 -1 -1 0
1;
#X obj 213 122 t f b b b b;
#X obj 587 139 expr $f1*50+50;
#X text 16 81 Connect to revil;
#X obj 218 151 oscformat revil spaces space cursor1 clear_vertices
;
#X obj 199 202 oscformat -f fff revil spaces space cursor1 add_vertex
;
#X obj 527 240 oscformat -f fff revil spaces space cursor1 position
;
#X obj 8 528 cnv 15 900 400 empty empty Revil_Emulation 20 12 0 14
-204786 -66577 0;
#X text 208 63 Create and move cursor 1;
#X obj 20 624 select 0 1;
#X msg 20 641 disconnect;
#X obj 67 692 spigot;
#X obj 20 557 tgl 50 0 empty empty empty 17 7 0 10 -258113 -1 -1 0
1;
#X obj 67 709 list prepend send;
#X obj 67 726 list trim;
#X obj 20 743 netsend -u -b;
#X msg 20 658 connect 127.0.0.1 7000;
#X obj 67 675 r toScan;
#X obj 77 811 oscparse;
#X obj 77 794 netreceive -u -b;
#X obj 318 576 route list;
#X obj 80 344 netreceive -u -b;
#X obj 20 157 t f f f f;
#X obj 80 310 * 7000;
#X msg 80 327 listen \$1;
#X obj 241 262 r fromRevil;
#X obj 80 378 s fromRevil;
#X obj 20 607 t f f f f;
#X obj 78 760 * 8327;
#X msg 78 777 listen \$1;
#X obj 358 678 unpack f f f;
#X obj 358 729 clip 0 1;
#X obj 361 778 hsl 128 15 0 1 0 0 empty empty empty -2 -8 0 10 -262144
-1 -1 0 1;
#X obj 358 695 expr $f1/100+0.5;
#X obj 318 559 list split 3;
#X obj 318 593 list split 1;
#X obj 358 627 route list;
#X obj 279 661 s toScan;
#X obj 77 828 s fromScan;
#X obj 318 542 r fromScan;
#X obj 279 644 oscformat -f s revil scene shape revealed_name;
#X obj 279 627 symbol;
#X obj 358 610 t a b;
#X obj 358 876 s toScan;
#X obj 358 859 oscformat -f ffffffffff revil scene shape revealed_blob
;
#X obj 358 661 route position;
#X obj 564 729 expr if($f1>0 && $f1<1 \, 1 \, 0);
#X obj 358 712 t f f;
#X obj 564 746 change;
#X obj 564 780 s toScan;
#X obj 564 763 oscformat -f f revil scene shape revealed_inside;
#N canvas 3 58 450 300 blob 0;
#X obj 23 20 inlet;
#X obj 23 262 outlet;
#X obj 50 194 tabread shapeblob;
#X obj 23 37 * 10;
#X obj 23 54 int;
#X obj 23 245 pack f f f f f f f f f f;
#X obj 23 228 route 9 8 7 6 5 4 3 2 1 0;
#X msg 23 92 10;
#X obj 23 211 pack f f;
#X obj 23 109 until;
#X obj 50 177 expr $f1 + $f2*10;
#X obj 23 71 t b b f;
#X obj 23 160 t f f;
#X obj 23 126 float 0;
#X obj 71 160 + 1;
#X obj 23 143 t f f;
#X msg 69 109 0;
#X connect 0 0 3 0;
#X connect 2 0 8 1;
#X connect 3 0 4 0;
#X connect 4 0 11 0;
#X connect 5 0 1 0;
#X connect 6 0 5 0;
#X connect 6 1 5 1;
#X connect 6 2 5 2;
#X connect 6 3 5 3;
#X connect 6 4 5 4;
#X connect 6 5 5 5;
#X connect 6 6 5 6;
#X connect 6 7 5 7;
#X connect 6 8 5 8;
#X connect 6 9 5 9;
#X connect 7 0 9 0;
#X connect 8 0 6 0;
#X connect 9 0 13 0;
#X connect 10 0 2 0;
#X connect 11 0 7 0;
#X connect 11 1 16 0;
#X connect 11 2 10 1;
#X connect 12 0 8 0;
#X connect 12 1 10 0;
#X connect 13 0 15 0;
#X connect 14 0 13 1;
#X connect 15 0 12 0;
#X connect 15 1 14 0;
#X connect 16 0 13 1;
#X restore 358 806 pd blob;
#X obj 140 885 array define -k shapeblob;
#A 0 0.0200006 0.0533345 0.0866684 0.153336 0.18667 0.220004 0.246671
0.273338 0.293339 0.306672 0.313339 0.293339 0.0333341 0.0333341 0.0733348
0.115558 0.157781 0.200004 0.273338 0.346673 0.386673 0.426674 0.493342
0.540009 0.540009 0.540009 0.540009 0.446674 0.366673 0.366673 0.380007
0.400007 0.446674 0.246671 0.253338 0.270005 0.286672 0.333339 0.366673
0.400007 0.146669 0.146669 0.153336 0.18667 0.210004 0.233338 0.286672
0.193337 0.260005 0.35334 0.39334 0.453341 0.473342 0.473342 0.473342
0.473342 0.460008 0.413341 0.326672 0.240004 0.140003 0.180003 0.386673
0.486675 0.653345 0.640011 0.593344 0.473342 0.466675 0.500009 0.546676
0.526676 0.486675 0.446674 0.376673 0.306672 0.460008 0.460008 0.460008
0.460008 0.460008 0.460008 0.453341 0.380007 0.253338 0.453341 0.493342
0.493342 0.413341 0.240004 0.106669 0.106669 0.106669 0.106669 0.126669
0.200004 0.340006 0.400007 0.480008 0.633344;
#X connect 1 0 2 0;
#X connect 1 1 6 0;
#X connect 2 0 9 0;
#X connect 3 0 7 0;
#X connect 4 0 57 0;
#X connect 5 0 3 0;
#X connect 6 0 9 0;
#X connect 7 0 8 0;
#X connect 8 0 9 0;
#X connect 10 0 61 0;
#X connect 14 0 40 0;
#X connect 15 0 40 0;
#X connect 16 0 40 0;
#X connect 17 0 18 0;
#X connect 18 0 41 0;
#X connect 19 1 20 0;
#X connect 20 0 34 0;
#X connect 23 0 17 0;
#X connect 24 0 23 0;
#X connect 25 0 36 0;
#X connect 26 0 23 0;
#X connect 27 0 26 0;
#X connect 27 1 24 0;
#X connect 28 0 30 0;
#X connect 29 0 22 0;
#X connect 30 0 29 0;
#X connect 31 0 33 0;
#X connect 32 0 35 0;
#X connect 33 0 32 0;
#X connect 34 0 28 1;
#X connect 34 0 31 1;
#X connect 34 1 28 0;
#X connect 34 2 31 0;
#X connect 36 0 37 0;
#X connect 36 1 16 0;
#X connect 36 2 15 0;
#X connect 36 3 14 0;
#X connect 36 4 39 0;
#X connect 37 0 27 0;
#X connect 39 0 12 0;
#X connect 40 0 13 0;
#X connect 41 0 11 0;
#X connect 44 0 45 0;
#X connect 44 1 51 0;
#X connect 45 0 50 0;
#X connect 46 0 48 0;
#X connect 47 0 62 0;
#X connect 48 0 49 0;
#X connect 49 0 50 0;
#X connect 51 0 50 0;
#X connect 52 0 46 0;
#X connect 53 0 73 0;
#X connect 54 0 53 0;
#X connect 55 0 70 0;
#X connect 56 0 10 0;
#X connect 57 0 1 0;
#X connect 57 1 3 1;
#X connect 57 3 58 0;
#X connect 58 0 59 0;
#X connect 59 0 56 0;
#X connect 60 0 19 0;
#X connect 62 0 44 0;
#X connect 62 1 46 1;
#X connect 62 3 63 0;
#X connect 63 0 64 0;
#X connect 64 0 54 0;
#X connect 65 2 68 0;
#X connect 66 0 67 0;
#X connect 67 0 86 0;
#X connect 68 0 82 0;
#X connect 69 1 55 0;
#X connect 70 0 76 1;
#X connect 70 1 77 0;
#X connect 71 0 80 0;
#X connect 74 0 69 0;
#X connect 75 0 72 0;
#X connect 76 0 75 0;
#X connect 77 0 71 0;
#X connect 77 1 76 0;
#X connect 79 0 78 0;
#X connect 80 0 65 0;
#X connect 81 0 83 0;
#X connect 82 0 66 0;
#X connect 82 1 81 0;
#X connect 83 0 85 0;
#X connect 85 0 84 0;
#X connect 86 0 79 0;
